<svg xmlns="http://www.w3.org/2000/svg" xmlns:xlink="http://www.w3.org/1999/xlink" version="1.1" id="Layer_1" x="0px" y="0px" viewBox="0 0 498.9 106.71" enable-background="new 0 0 498.9 106.71" xml:space="preserve"><g><g><defs><path id="SVGID_1_" d="M6.63 70.2c0-8.62 5.48-23.01 23.59-36.92C47.83 19.85 69.61 13.4 85.55 13.4c1.99 0 3.83 0.18 5.3 0.51 c-1.33 0.99-2.83 1.99-4.16 3.13c-7.8 6.31-19.92 18.05-30.73 32.14C43.18 65.91 32.72 81.13 17.42 81.13 C10.13 81.13 6.63 76.66 6.63 70.2 M108.96 3.46c-4.64 1.83-10.12 4.8-15.94 8.95c-1.99-0.33-4.16-0.48-6.48-0.48 c-17.27 0-40.2 6.46-59.15 20.18C7.63 46.53 0 60.44 0 70.05c0 9.1 7.29 12.59 17.6 12.59c19.26 0 37.36-17.39 52.67-38.09 c8.62-11.44 14.44-19.37 20.58-25.5c1.18-1.35 2.5-2.49 3.83-3.81c3.83 2.31 4.97 6.46 3.65 11.74 c-1.81 7.63-9.28 14.08-16.43 15.08c-1.51-0.18-2.83-0.5-5-0.5c-1.65 0-4.3 0.17-4.49 1.34c-0.15 0.99 1.83 1.32 4.01 1.32 c1.81 0 2.8-0.17 4.79-0.51c3.17-0.33 10.15 2.31 9.64 10.43c-0.66 13.58-13.11 25.35-23.92 25.35c-2.99 0-6.81-1.17-6.3-3.97 c0.33-1.83 2.33-2.67 3.98-3.33c1.99-0.82 4.32-2.14 4.32-4.81c0-2.64-2.32-3.96-5.13-3.96c-5 0-10.31 3.96-10.31 9.28 c0 6.28 7.14 8.11 13.45 8.11c16.78 0 31.91-9.76 32.57-23.67c0.33-6.79-4.49-12.59-14.61-14.24v-0.18 c7.95-1.17 19.59-6.63 21.09-15.74c1.33-6.79-2.99-11.27-9.13-13.58c4.64-3.81 9.28-6.79 13.11-8.44 c5-2.31 10.82-3.64 15.61-3.64c5 0 8.97 1.65 10.81 3.79c0.49 0.51 0.67 1.02 1 0.84c0.33-0.15 0.15-0.66-0.33-1.5 C135.21 1.65 130.72 0 125.42 0C119.75 0 113.79 1.48 108.96 3.46L108.96 3.46L108.96 3.46z"/></defs><clipPath id="SVGID_2_"><use xlink:href="#SVGID_1_" overflow="visible"/></clipPath><polygon clip-path="url(#SVGID_2_)" fill="#E5E6E5" points="-2.52,-2.52 139.19,-2.52 139.19,84.26 -2.52,84.26 -2.52,-2.52"/></g><g><defs><path id="SVGID_3_" d="M127.81 47.39c2.96 0 5.33 0.92 7.07 2.72c1.74 1.83 2.73 4.22 2.99 7.24h-20.74 C118.66 50.72 122.23 47.39 127.81 47.39 M115.82 50.95c-3.44 3.46-5.15 7.81-5.15 13.07c0 5.11 1.55 9.38 4.69 12.86 c3.21 3.64 7.35 5.44 12.37 5.44c3.83 0 7.32-1.07 10.48-3.23c3.14-2.14 5.36-4.98 6.66-8.57c-0.18-0.21-0.36-0.33-0.56-0.38 c-0.21-0.05-0.44-0.03-0.7 0.07c-0.91 2.59-2.6 4.75-5.05 6.46c-2.47 1.72-5.1 2.57-7.93 2.57c-4.54 0-8.09-1.58-10.58-4.73 c-2.32-2.92-3.47-6.68-3.47-11.34v-0.61c0-1.4 0.05-2.49 0.15-3.3h24.13c2.55 0 3.83-0.36 3.83-1.07 c-0.46-3.49-2.32-6.41-5.58-8.8c-3.29-2.42-6.71-3.61-10.31-3.61C123.58 45.79 119.25 47.52 115.82 50.95L115.82 50.95 L115.82 50.95z"/></defs><clipPath id="SVGID_4_"><use xlink:href="#SVGID_3_" overflow="visible"/></clipPath><polygon clip-path="url(#SVGID_4_)" fill="#E5E6E5" points="108.12,43.22 146.51,43.22 146.51,83.98 108.12,83.98 108.12,43.22"/></g><g><defs><path id="SVGID_5_" d="M159.26 78.26c-1.45-1.27-2.19-2.95-2.19-5.06c0-4.83 3.62-7.58 10.84-8.19c3.85-0.96 5.92-1.52 6.22-1.68 v6.59c0 2.7-0.92 5.09-2.73 7.14c-1.81 2.08-4.06 3.13-6.71 3.13C162.53 80.19 160.74 79.53 159.26 78.26 M158.47 47.78 c-3.65 1.5-5.69 3-6.14 4.52c0.15 0.51 0.74 1.02 1.76 1.53c0.71 0.36 1.45 0.71 2.22 1.07c0-2.19 1.05-3.94 3.16-5.26 c1.78-1.19 3.83-1.78 6.15-1.78c5.69 0 8.52 3.18 8.52 9.51v4.3c-3.06 1.02-5.81 1.66-8.21 1.91 c-9.9 0.96-14.82 4.35-14.82 10.09c0 2.97 1.23 5.24 3.67 6.84c2.04 1.32 4.67 1.98 7.83 1.98c4.93 0 8.91-2.28 11.92-6.89v0.23 c0.36 4.02 1.38 6.05 3.09 6.05c1.17 0 3.49-0.79 6.99-2.39l-0.23-0.77c-0.56 0.46-1.25 0.69-2.09 0.69 c-1.63 0-2.45-2.11-2.45-6.36V57.2c0-3.83-1.33-6.73-4.01-8.74c-2.34-1.78-5.51-2.67-9.51-2.67 C164.41 45.79 161.79 46.45 158.47 47.78L158.47 47.78L158.47 47.78z"/></defs><clipPath id="SVGID_6_"><use xlink:href="#SVGID_5_" overflow="visible"/></clipPath><polygon clip-path="url(#SVGID_6_)" fill="#E5E6E5" points="148.55,43.22 186.27,43.22 186.27,84.11 148.55,84.11 148.55,43.22"/></g><g><defs><path id="SVGID_7_" d="M214.48 48.62L214 49.18l1.18 0.69l1.25 0.3c1.2 0.3 1.96 0.76 2.29 1.4c0.36 0.66 0.51 1.63 0.51 2.95 v13.58c-0.41 3-1.58 5.62-3.55 7.8c-2.09 2.39-4.61 3.59-7.55 3.59c-3.04 0-5.36-0.89-6.94-2.67c-1.6-1.78-2.39-4.22-2.39-7.27 V46.32l-9.59 2.29l-0.41 0.56l0.94 0.69l1.07 0.3c1.02 0.3 1.68 0.87 1.99 1.68c0.2 0.51 0.31 1.4 0.31 2.67v16.62 c0 3.49 1.04 6.21 3.16 8.19c2.09 2.01 4.87 3 8.37 3c5.43 0 10.28-2.49 14.51-7.5l1.07 5.82l1.33 1.14l7.07-1.67 c0.2-0.18 0.33-0.38 0.38-0.63c0-0.16-0.02-0.31-0.07-0.46l-2.3-0.08c-1.35-0.61-2.01-2.9-2.01-6.89V46.32L214.48 48.62 L214.48 48.62z"/></defs><clipPath id="SVGID_8_"><use xlink:href="#SVGID_7_" overflow="visible"/></clipPath><polygon clip-path="url(#SVGID_8_)" fill="#E5E6E5" points="186.27,43.78 230.63,43.78 230.63,83.98 186.27,83.98 186.27,43.78"/></g><g><defs><path id="SVGID_9_" d="M243.05 38.75h-0.38c-1.56 4.86-4.41 8.37-8.52 10.5l0.08 0.3c-0.21 0.15-0.31 0.31-0.31 0.46 c0 0.15 0.1 0.28 0.31 0.38h4.28v23.19c0 5.47 2.29 8.21 6.83 8.21c3.29 0 5.69-1.16 7.24-3.53l-0.55-0.76 c-0.82 1.32-1.74 1.98-2.71 1.98c-3.62 0-5.44-3.97-5.44-11.91V50.39h8.75l0.87-2.61h-9.62v-9.1c-0.05-0.21-0.18-0.31-0.38-0.31 C243.36 38.37 243.2 38.5 243.05 38.75L243.05 38.75L243.05 38.75z"/></defs><clipPath id="SVGID_10_"><use xlink:href="#SVGID_9_" overflow="visible"/></clipPath><polygon clip-path="url(#SVGID_10_)" fill="#E5E6E5" points="231.37,35.82 255.19,35.82 255.19,83.42 231.37,83.42 231.37,35.82"/></g><g><defs><path id="SVGID_11_" d="M290.01 46.78l-5.69-0.23l-0.31 0.76l0.54 0.69c1.84 0.44 2.96 1.19 3.37 2.32 c0.15 0.3 0.23 0.68 0.23 1.14c0 1.27-0.43 2.9-1.3 4.83l-8.52 18.74l-10.33-20.57c-0.84-1.73-1.27-3.15-1.27-4.22v-0.38 c0.21-0.92 1.25-1.58 3.14-2.01l0.3-0.61l-0.46-0.69l-6.84 0.23l-6.91-0.23l-0.31 0.76l0.54 0.69c1.58 0.44 2.93 1.37 4 2.85 c0.67 0.86 1.48 2.31 2.45 4.38l11.76 24.18l-1.07 4.68c0 2.09-0.69 4.02-2.06 5.75c-1.4 1.73-3.12 2.7-5.15 2.92 c-0.51 0-0.95-0.12-1.3-0.33l-1.1-0.61c-1.38 1.5-2.22 3.05-2.53 4.68c0.41 0.96 1.13 1.45 2.15 1.45c4.82 0 8.57-3 11.22-9.03 l14.36-32.55c2.07-4.6 4.39-7.42 7.02-8.51l0.3-0.61l-0.48-0.69L290.01 46.78L290.01 46.78z"/></defs><clipPath id="SVGID_12_"><use xlink:href="#SVGID_11_" overflow="visible"/></clipPath><polygon clip-path="url(#SVGID_12_)" fill="#E5E6E5" points="253.1,44.01 297.86,44.01 297.86,99.57 253.1,99.57 253.1,44.01"/></g><g><defs><path id="SVGID_13_" d="M313.09 70.2c0-8.62 5.48-23.01 23.6-36.92c17.6-13.43 39.38-19.88 55.32-19.88 c1.99 0 3.82 0.18 5.3 0.51c-1.32 0.99-2.81 1.99-4.13 3.13c-7.83 6.31-19.95 18.05-30.74 32.14 c-12.8 16.73-23.26 31.96-38.54 31.96C316.58 81.13 313.09 76.66 313.09 70.2 M415.42 3.46c-4.64 1.83-10.12 4.8-15.94 8.95 c-1.99-0.33-4.16-0.48-6.48-0.48c-17.27 0-40.2 6.46-59.15 20.18c-19.77 14.42-27.39 28.32-27.39 37.93 c0 9.1 7.29 12.59 17.6 12.59c19.28 0 37.39-17.39 52.67-38.09c8.62-11.44 14.44-19.37 20.58-25.5c1.18-1.35 2.5-2.49 3.82-3.81 c3.83 2.31 5 6.46 3.65 11.74c-1.81 7.63-9.29 14.08-16.43 15.08c-1.5-0.18-2.83-0.5-5-0.5c-1.66 0-4.31 0.17-4.49 1.32 c-0.16 1.01 1.84 1.34 4 1.34c1.81 0 2.8-0.17 4.82-0.51c3.14-0.33 10.12 2.31 9.61 10.43c-0.66 13.58-13.11 25.35-23.92 25.35 c-2.98 0-6.81-1.17-6.3-3.97c0.33-1.83 2.32-2.67 3.98-3.33c1.99-0.82 4.33-2.14 4.33-4.81c0-2.64-2.34-3.96-5.15-3.96 c-5 0-10.3 3.96-10.3 9.28c0 6.28 7.14 8.11 13.44 8.11c16.78 0 31.91-9.76 32.57-23.67c0.34-6.79-4.49-12.59-14.62-14.26v-0.16 c7.98-1.17 19.59-6.63 21.1-15.74c1.32-6.79-2.99-11.27-9.13-13.58c4.64-3.81 9.31-6.79 13.11-8.44c5-2.31 10.81-3.64 15.64-3.64 c4.97 0 8.95 1.65 10.79 3.79c0.51 0.51 0.66 1.02 0.99 0.84c0.33-0.15 0.18-0.66-0.33-1.5C441.67 1.65 437.18 0 431.88 0 C426.24 0 420.24 1.48 415.42 3.46L415.42 3.46L415.42 3.46z"/></defs><clipPath id="SVGID_14_"><use xlink:href="#SVGID_13_" overflow="visible"/></clipPath><polygon clip-path="url(#SVGID_14_)" fill="#E5E6E5" points="303.88,-2.52 445.67,-2.52 445.67,84.26 303.88,84.26 303.88,-2.52"/></g><g><defs><path id="SVGID_15_" d="M426.42 73.3c-2.22-3.08-3.34-6.82-3.39-11.21c-0.05-4.52 0.84-8.26 2.7-11.24 c2.14-3.53 5.38-5.31 9.64-5.31c4.23 0 7.57 1.78 10.04 5.31c2.22 3.13 3.37 6.87 3.42 11.24c0.05 4.45-0.86 8.16-2.7 11.14 c-2.17 3.56-5.38 5.31-9.67 5.31C432.23 78.54 428.89 76.81 426.42 73.3 M422.31 48.92c-3.82 3.46-5.74 7.86-5.74 13.17 c0 5.29 1.92 9.69 5.74 13.17c3.7 3.36 8.24 5.06 13.62 5.06c5.38 0 9.95-1.73 13.7-5.14c3.78-3.43 5.66-7.81 5.66-13.09 c0-5.31-1.89-9.69-5.66-13.14c-3.75-3.46-8.32-5.16-13.7-5.16C430.55 43.78 426.01 45.49 422.31 48.92L422.31 48.92L422.31 48.92 z"/></defs><clipPath id="SVGID_16_"><use xlink:href="#SVGID_15_" overflow="visible"/></clipPath><polygon clip-path="url(#SVGID_16_)" fill="#E5E6E5" points="414.02,41.27 456.92,41.27 456.92,81.98 414.02,81.98 414.02,41.27"/></g><g><defs><path id="SVGID_17_" d="M484.85 45.36l-0.23 0.38l0.1 0.35c1.81 0.23 2.75 0.74 2.85 1.58v0.2c0 0.94-0.56 2.08-1.7 3.46 l-6.64 7.88l-7.14-9.13c-0.71-0.94-1.07-1.68-1.07-2.21c0-0.96 1.02-1.55 3.05-1.78l0.13-0.35l-0.23-0.38h-13.34l-0.2 0.38 l0.1 0.35c1.53 0.26 2.85 0.79 3.93 1.58c0.86 0.64 1.86 1.67 2.96 3.13l9.06 11.67l-9.57 11.42c-2.24 2.64-4.64 4.22-7.2 4.73 l-0.1 0.38l0.2 0.36h11.21l0.2-0.36l-0.1-0.38c-1.83-0.15-2.76-0.71-2.76-1.68c-0.05-1.15 0.74-2.67 2.32-4.55l6.97-8.44 l7.52 9.84c1.02 1.32 1.55 2.46 1.55 3.43c0 0.79-0.74 1.25-2.22 1.4l-0.1 0.38l0.21 0.36h13.16l0.23-0.36l-0.1-0.38 c-2.45-0.46-4.83-2.14-7.14-5.01l-10.35-12.96l7.26-8.8c2.79-3.28 5.53-5.21 8.29-5.75l0.1-0.38l-0.23-0.35H484.85L484.85 45.36z "/></defs><clipPath id="SVGID_18_"><use xlink:href="#SVGID_17_" overflow="visible"/></clipPath><polygon clip-path="url(#SVGID_18_)" fill="#E5E6E5" points="457.1,42.84 499.67,42.84 499.67,81.01 457.1,81.01 457.1,42.84"/></g><path fill="#D4A2CA" d="M351.41 97.71c0-1.34 0.04-2.56 0.05-3.07h-0.55c0.04 0.52 0.05 1.73 0.05 3.07v5.62 c0 1.34-0.02 2.54-0.05 3.07h0.55c-0.02-0.53-0.05-1.73-0.05-3.07v-2.8l4.85 4.59c0.7 0.65 0.98 1 1.25 1.29h0.91 c-0.43-0.32-0.98-0.74-1.86-1.58l-4.69-4.45l3.78-3.72c1.02-1.02 1.59-1.57 2.15-2.01h-0.77c-0.38 0.43-0.82 0.89-1.79 1.86 l-3.83 3.8V97.71L351.41 97.71L351.41 97.71z M367.07 103.92l0.04-8.27l7.67 9.5c0.57 0.7 0.73 0.93 1.11 1.46h0.14 c-0.05-1-0.05-1.63-0.05-2.35v-6.54c0-0.95 0.02-2.32 0.05-3.07h-0.54c0.02 0.72 0.04 2.09 0.04 3.07v7.61l-7.64-9.43 c-0.63-0.77-0.86-1.05-1.18-1.53h-0.12c0.04 0.93 0.05 2.23 0.05 3.26v6.29c0 0.91-0.02 2.01-0.05 2.49h0.54 C367.08 105.91 367.07 104.82 367.07 103.92L367.07 103.92L367.07 103.92z M388.07 95c1.23 0 2.42 0 2.97 0.05v-0.46 c-0.55 0.04-1.74 0.05-2.97 0.05h-2.18c0.04 0.52 0.07 1.87 0.07 3.06v5.63c0 0.77-0.04 2.13-0.07 3.07h2.33 c1.23 0 2.43 0.02 2.97 0.05v-0.46c-0.54 0.04-1.73 0.05-2.97 0.05h-1.81v-5.87h1.75c1.22 0 2.07 0.02 2.63 0.05v-0.46 c-0.56 0.04-1.41 0.05-2.63 0.05h-1.75V95H388.07L388.07 95L388.07 95z M399.95 106.39h2.09c2.18 0 3.79-1.44 3.79-3.38 c0-1.53-0.86-2.87-2.61-3.31c0.68-0.21 1.54-1.12 1.54-2.35c0-1.56-1.29-2.71-3.04-2.71h-1.75c0.05 0.52 0.07 1.94 0.07 3.12v5.57 C400.03 104.49 400 105.86 399.95 106.39L399.95 106.39L399.95 106.39z M405.37 103.03c0 1.7-1.43 2.97-3.33 2.97h-1.56v-6.04h1.81 C404.04 99.96 405.37 101.21 405.37 103.03L405.37 103.03L405.37 103.03z M400.48 95.03h1.22c1.49 0 2.58 1 2.58 2.32 c0 1.22-0.88 2.25-2 2.25h-1.79V95.03L400.48 95.03z M418.44 106.71l2.73-6.34l2.72 6.34h0.14l4.13-9.69 c0.56-1.25 0.84-1.8 1.09-2.39h-0.59c-0.14 0.39-0.32 0.93-0.87 2.18l-3.83 8.95l-2.54-5.96l1.2-2.77c0.57-1.27 1-2.18 1.12-2.41 h-0.62c-0.23 0.64-0.41 1.1-0.91 2.29l-1.02 2.35l-0.95-2.25c-0.57-1.37-0.73-1.77-0.95-2.39h-0.64c0.38 0.67 0.59 1.17 1.11 2.39 l1.2 2.82l-2.54 5.91l-3.9-8.95c-0.36-0.84-0.68-1.61-0.86-2.16h-0.62c0.39 0.67 0.77 1.51 1.11 2.34l4.19 9.74H418.44 L418.44 106.71z M437.03 100.51c0 3.35 2.77 6.08 6.15 6.08c3.4 0 6.17-2.73 6.17-6.08c0-3.35-2.77-6.08-6.17-6.08 C439.8 94.42 437.03 97.16 437.03 100.51L437.03 100.51L437.03 100.51z M437.51 100.51c0-3.13 2.56-5.67 5.67-5.67 c3.13 0 5.69 2.54 5.69 5.67c0 3.14-2.56 5.68-5.69 5.68C440.07 106.19 437.51 103.65 437.51 100.51L437.51 100.51L437.51 100.51z M459.06 101.17h1.31c0.27 0 0.52-0.02 0.79-0.05c1.32 1.92 2.72 3.74 3.92 5.27h0.73c-1.29-1.22-2.97-3.81-4.2-5.39 c1.2-0.34 2.41-1.34 2.41-3.14c0-1.88-1.36-3.23-3.88-3.23h-1.57c0.03 0.52 0.05 1.91 0.05 3.07v5.79c0 1.16-0.02 2.37-0.05 2.9 h0.56c-0.06-0.53-0.06-1.73-0.06-2.9V101.17L459.06 101.17z M459.06 95h1.07c2.29 0 3.4 1.37 3.4 2.87c0 1.79-1.36 2.93-3.17 2.93 h-1.31V95L459.06 95z M474.8 94.63c-1.23 0-2.43-0.02-2.99-0.05v0.46c0.55-0.04 1.75-0.05 2.99-0.05h1.64 c0.04 0.63 0.05 1.51 0.05 2.21v6.11c0 1.17-0.02 2.54-0.05 3.07H477c-0.05-0.53-0.05-1.9-0.05-3.07v-6.11c0-0.71 0-1.58 0.02-2.21 h1.66c1.23 0 2.45 0.02 3.01 0.05v-0.46c-0.56 0.04-1.77 0.05-3.01 0.05H474.8L474.8 94.63L474.8 94.63z M490.4 97.71 c0-1.22 0.02-2.61 0.05-3.07h-0.55c0.04 0.46 0.05 1.86 0.05 3.07v6.2c0 0.91-0.02 2.01-0.05 2.49h0.55 c-0.04-0.48-0.05-1.58-0.05-2.47v-3.76h7.99v3.74c0 0.91-0.02 2.01-0.05 2.49h0.55c-0.04-0.48-0.05-1.58-0.05-2.47v-6.21 c0-0.95 0.02-2.32 0.05-3.07h-0.55c0.05 0.72 0.05 2.09 0.05 3.07v2.1h-7.99V97.71L490.4 97.71L490.4 97.71z"/></g></svg>